<?xml version="1.0" standalone="no"?>
<!DOCTYPE svg PUBLIC "-//W3C//DTD SVG 20010904//EN"
 "http://www.w3.org/TR/2001/REC-SVG-20010904/DTD/svg10.dtd">
<svg version="1.0" xmlns="http://www.w3.org/2000/svg"
 width="500.000000pt" height="500.000000pt" viewBox="0 0 500.000000 500.000000"
 preserveAspectRatio="xMidYMid meet">

<g transform="translate(0.000000,500.000000) scale(0.100000,-0.100000)"
fill="#000000" stroke="none">
<path d="M0 2500 l0 -2500 2500 0 2500 0 0 2500 0 2500 -2500 0 -2500 0 0
-2500z m2790 1195 l0 -265 -77 0 c-92 0 -148 -23 -178 -72 -19 -32 -20 -56
-23 -916 l-2 -882 172 0 c209 0 242 10 277 82 18 38 21 62 21 166 l0 122 380
0 380 0 0 -450 0 -450 -1175 0 -1175 0 2 263 3 262 92 5 c103 6 135 21 165 81
17 32 18 93 18 859 0 800 -1 826 -20 857 -32 53 -64 67 -164 73 l-91 5 -3 263
-2 262 700 0 700 0 0 -265z"/>
</g>
</svg>
